HIERARCHY
ROOT Hips
{
	OFFSET 0.000000 0.000000 0.000000
	CHANNELS 6 Xposition Yposition Zposition Xrotation Yrotation Zrotation
	JOINT LeftUpLeg_virtual
	{
		OFFSET 0.000000 0.000000 0.000000
		CHANNELS 3 Xrotation Yrotation Zrotation
		JOINT LeftUpLeg
		{
			OFFSET 15.427100 -6.655098 0.678600
			CHANNELS 3 Xrotation Yrotation Zrotation
			JOINT LeftLeg
			{
				OFFSET 4.081073 -39.591068 13.024000
				CHANNELS 3 Xrotation Yrotation Zrotation
				JOINT LeftFoot
				{
					OFFSET -4.081074 -37.707932 -15.979700
					CHANNELS 3 Xrotation Yrotation Zrotation
					JOINT LeftToeBase
					{
						OFFSET 5.346399 -15.068900 20.645000
						CHANNELS 3 Xrotation Yrotation Zrotation
						JOINT LeftToe_End
						{
							OFFSET 2.754700 0.931300 11.300900
							CHANNELS 3 Xrotation Yrotation Zrotation
							End Site
							{
								OFFSET 0 0 0
							}
						}
					}
				}
			}
		}
	}
	JOINT RightUpLeg_virtual
	{
		OFFSET 0.000000 0.000000 0.000000
		CHANNELS 3 Xrotation Yrotation Zrotation
		JOINT RightUpLeg
		{
			OFFSET -15.569500 -6.655098 0.678600
			CHANNELS 3 Xrotation Yrotation Zrotation
			JOINT RightLeg
			{
				OFFSET -4.081825 -39.591045 13.023800
				CHANNELS 3 Xrotation Yrotation Zrotation
				JOINT RightFoot
				{
					OFFSET 4.081824 -37.707954 -15.979600
					CHANNELS 3 Xrotation Yrotation Zrotation
					JOINT RightToeBase
					{
						OFFSET -5.346400 -15.068900 20.645000
						CHANNELS 3 Xrotation Yrotation Zrotation
						JOINT RightToe_End
						{
							OFFSET -2.754700 0.931300 11.300900
							CHANNELS 3 Xrotation Yrotation Zrotation
							End Site
							{
								OFFSET 0 0 0
							}
						}
					}
				}
			}
		}
	}
	JOINT Spine_virtual
	{
		OFFSET 0.000000 0.000000 0.000000
		CHANNELS 3 Xrotation Yrotation Zrotation
		JOINT Spine
		{
			OFFSET -0.279200 12.230698 -2.892100
			CHANNELS 3 Xrotation Yrotation Zrotation
			JOINT Spine1
			{
				OFFSET -0.232667 10.192268 -1.242267
				CHANNELS 3 Xrotation Yrotation Zrotation
				JOINT Spine1_split
				{
					OFFSET -0.232667 10.192268 -1.242267
					CHANNELS 3 Xrotation Yrotation Zrotation
					JOINT Spine2
					{
						OFFSET -0.232667 10.192268 -1.242267
						CHANNELS 3 Xrotation Yrotation Zrotation
						JOINT Neck_virtual
						{
							OFFSET 0.000000 0.000000 0.000000
							CHANNELS 3 Xrotation Yrotation Zrotation
							JOINT Neck
							{
								OFFSET -0.418800 17.814194 8.416900
								CHANNELS 3 Xrotation Yrotation Zrotation
								JOINT Head
								{
									OFFSET 0.000000 7.031097 3.806800
									CHANNELS 3 Xrotation Yrotation Zrotation
									JOINT HeadTop_End
									{
										OFFSET 0.000000 24.646606 12.978600
										CHANNELS 3 Xrotation Yrotation Zrotation
										End Site
										{
											OFFSET 0 0 0
										}
									}
								}
							}
						}
						JOINT LeftShoulder_virtual
						{
							OFFSET 0.000000 0.000000 0.000000
							CHANNELS 3 Xrotation Yrotation Zrotation
							JOINT LeftShoulder
							{
								OFFSET 8.476499 7.247704 -3.868750
								CHANNELS 3 Xrotation Yrotation Zrotation
								JOINT LeftShoulder_split
								{
									OFFSET 8.476499 7.247704 -3.868750
									CHANNELS 3 Xrotation Yrotation Zrotation
									JOINT LeftArm
									{
										OFFSET 9.308998 -2.777710 0.208600
										CHANNELS 3 Xrotation Yrotation Zrotation
										JOINT LeftForeArm
										{
											OFFSET 29.972298 0.000000 0.000000
											CHANNELS 3 Xrotation Yrotation Zrotation
											JOINT LeftHand
											{
												OFFSET 26.026505 0.000000 0.000000
												CHANNELS 3 Xrotation Yrotation Zrotation
												End Site
												{
													OFFSET 0 0 0
												}
											}
										}
									}
								}
							}
						}
						JOINT RightShoulder_virtual
						{
							OFFSET 0.000000 0.000000 0.000000
							CHANNELS 3 Xrotation Yrotation Zrotation
							JOINT RightShoulder
							{
								OFFSET -7.570500 7.247704 -3.868750
								CHANNELS 3 Xrotation Yrotation Zrotation
								JOINT RightShoulder_split
								{
									OFFSET -7.570500 7.247704 -3.868750
									CHANNELS 3 Xrotation Yrotation Zrotation
									JOINT RightArm
									{
										OFFSET -9.308998 -2.777710 0.208500
										CHANNELS 3 Xrotation Yrotation Zrotation
										JOINT RightForeArm
										{
											OFFSET -29.972300 0.000000 0.000000
											CHANNELS 3 Xrotation Yrotation Zrotation
											JOINT RightHand
											{
												OFFSET -26.026505 0.000000 0.000000
												CHANNELS 3 Xrotation Yrotation Zrotation
												End Site
												{
													OFFSET 0 0 0
												}
											}
										}
									}
								}
							}
						}
					}
				}
			}
		}
	}
}
MOTION
Frames: 6
Frame Time: 0.03333333
-0.974064 74.678871 -8.986912 0.000000 0.000000 0.000000 5.356831 -23.064943 7.152217 -58.668880 14.788203 37.911248 41.863111 -25.863010 -0.166270 11.825661 -4.467747 -19.771986 0.472539 -6.722494 -0.213690 0.000000 0.000000 0.000000 2.429495 -17.970516 6.510537 -22.985963 0.919418 -31.576846 51.046450 11.507075 -2.472259 -24.090390 -15.163980 42.250095 3.693498 0.719483 -8.094507 0.000000 0.000000 0.000000 0.897137 -7.080572 5.855689 13.815781 10.923698 -0.431359 11.910295 4.493841 -4.667413 0.172418 -1.542586 0.444730 0.000000 0.000000 0.000000 10.652423 5.981570 -2.644296 -30.807889 36.842529 37.131272 -20.934178 10.813258 8.736634 0.000000 0.000000 0.000000 4.185171 2.783139 -2.636717 -2.562521 -5.114611 9.866629 2.779440 -3.043398 -1.307304 -25.323099 21.207184 -58.509347 -2.871093 -56.771419 1.678798 0.000000 0.000000 0.000000 2.741021 1.656213 -1.499414 -7.124974 -1.869898 -2.201882 -23.362809 0.149971 2.400630 3.941563 28.549014 43.274719 -25.072883 38.743210 13.983270 0.000000 0.000000 0.000000 
-0.931418 74.890694 -10.231743 0.000000 0.000000 0.000000 5.584093 -23.592658 7.239012 -58.618978 15.178834 38.273737 41.364008 -26.031383 -0.612060 11.280619 -3.389773 -18.988305 1.347043 -6.812461 -0.210138 0.000000 0.000000 0.000000 2.425464 -17.923202 6.494369 -23.818294 1.530099 -31.475469 51.196950 11.382130 -2.019947 -23.844189 -15.171010 40.462505 5.477358 0.681190 -7.656119 0.000000 0.000000 0.000000 0.721436 -7.922987 5.955964 13.719848 10.700919 -0.738555 12.132351 4.212669 -4.647777 0.118417 -1.484994 0.416631 0.000000 0.000000 0.000000 10.463101 5.799450 -2.591246 -31.291487 37.180333 37.201609 -20.804895 12.721389 7.847361 0.000000 0.000000 0.000000 3.961520 2.653676 -2.519137 -2.633984 -4.738207 9.887656 1.502045 -3.390977 -1.187971 -24.574355 21.762871 -57.611566 -2.908425 -55.222243 1.904427 0.000000 0.000000 0.000000 2.607716 1.452407 -1.499915 -6.769552 -1.096515 -2.006730 -22.901421 0.297009 2.510052 1.529035 27.674591 45.854748 -25.229643 38.981153 14.311849 0.000000 0.000000 0.000000 
-0.744524 75.067955 -11.500366 0.000000 0.000000 0.000000 5.854499 -25.867190 7.588583 -57.635322 16.016759 38.764271 40.530875 -25.911444 -0.649719 10.278189 -1.111006 -20.229017 1.881402 -6.884840 -0.591050 0.000000 0.000000 0.000000 2.640925 -20.818715 6.803167 -26.529870 3.497604 -30.867630 51.372861 11.677846 -1.841747 -22.049475 -13.613695 38.983916 5.918142 0.545014 -7.818782 0.000000 0.000000 0.000000 1.049258 -10.685931 6.191318 13.636077 10.189547 -1.196508 12.363795 3.778415 -4.602222 0.102336 -1.494069 0.390455 0.000000 0.000000 0.000000 10.368860 5.462470 -2.540503 -31.113697 38.241017 36.925929 -21.636646 17.156971 7.614056 0.000000 0.000000 0.000000 3.797501 2.406417 -2.491050 -2.631151 -3.918737 9.449845 0.265306 -4.125137 -1.657088 -23.893293 22.568859 -56.293268 -0.422876 -53.141597 4.355086 0.000000 0.000000 0.000000 2.575176 1.153494 -1.506725 -6.279107 -0.517696 -1.787240 -22.572749 -0.584626 1.503590 -1.342469 27.809006 48.156167 -25.819044 40.049630 15.422246 0.000000 0.000000 0.000000 
-0.655240 75.270645 -12.690331 0.000000 0.000000 0.000000 6.290767 -29.799501 8.251172 -55.575320 17.427675 39.284858 39.431047 -25.231072 -0.431186 9.245855 2.328995 -22.861780 2.050592 -6.963788 -1.256349 0.000000 0.000000 0.000000 3.309897 -25.904136 7.481723 -30.617221 6.536899 -29.417440 51.424378 12.225718 -1.961703 -19.223641 -10.765136 37.285361 5.283533 0.282053 -8.521402 0.000000 0.000000 0.000000 1.933380 -15.042433 6.658222 13.500339 9.447636 -1.728258 12.553742 3.183993 -4.549363 0.057491 -1.447845 0.376726 0.000000 0.000000 0.000000 10.413132 4.978734 -2.518563 -30.311307 39.881546 36.296585 -23.414527 23.687796 8.194159 0.000000 0.000000 0.000000 3.702911 2.029656 -2.585443 -2.516384 -2.724994 8.604549 -0.839096 -5.047906 -2.659100 -23.096794 23.641412 -55.112107 3.863267 -50.863220 8.213386 0.000000 0.000000 0.000000 2.584296 0.749197 -1.527761 -5.611153 -0.116247 -1.596943 -22.360537 -1.926002 -0.014495 -4.878433 28.967765 49.818222 -26.629120 41.685536 17.147420 0.000000 0.000000 0.000000 
-0.770492 75.561836 -13.928566 0.000000 0.000000 0.000000 7.040129 -35.149366 9.225430 -52.577919 19.520959 40.080329 38.525552 -23.851319 -0.043024 8.514635 6.848913 -26.115512 2.330136 -7.092424 -2.054868 0.000000 0.000000 0.000000 4.523903 -32.403217 8.559143 -35.626813 9.990182 -26.758270 50.952723 12.694786 -2.230560 -15.770202 -7.116116 34.920152 5.017279 -0.172829 -9.732420 0.000000 0.000000 0.000000 3.264348 -20.720338 7.418697 13.256134 8.576801 -2.193394 12.705012 2.402086 -4.502935 0.020020 -1.399023 0.370949 0.000000 0.000000 0.000000 10.548597 4.307953 -2.538145 -28.896102 42.012278 35.274724 -25.896736 31.667137 9.677506 0.000000 0.000000 0.000000 3.706465 1.474416 -2.806729 -2.252617 -1.299709 7.488490 -2.042618 -5.770842 -3.377034 -21.969181 25.087886 -54.472275 9.140598 -48.662123 12.666188 0.000000 0.000000 0.000000 2.616113 0.194351 -1.589383 -4.753551 0.066536 -1.543223 -21.634505 -3.280405 -1.592512 -9.472531 31.084157 50.566500 -27.556234 43.577676 19.425604 0.000000 0.000000 0.000000 
-1.068795 75.952805 -15.023678 0.000000 0.000000 0.000000 8.219124 -41.289340 10.520398 -48.846569 22.441041 41.141467 37.867627 -21.697175 0.364195 7.731595 12.124890 -29.007110 2.524389 -7.312553 -2.674392 0.000000 0.000000 0.000000 6.123002 -39.665412 9.973477 -41.189008 13.135085 -22.855872 49.886575 12.970451 -2.486934 -11.995502 -3.038777 31.943302 5.960583 -0.830843 -11.441004 0.000000 0.000000 0.000000 4.900026 -27.298340 8.508423 12.871148 7.634103 -2.437291 12.841445 1.376977 -4.478188 -0.005902 -1.444012 0.328006 0.000000 0.000000 0.000000 10.765547 3.398163 -2.600794 -26.983169 44.424589 33.858296 -28.745182 40.344425 11.996665 0.000000 0.000000 0.000000 3.844747 0.679506 -3.131734 -1.837306 0.160909 6.279521 -2.540581 -5.499242 -3.685735 -20.162152 26.830745 -54.650160 14.874716 -47.037279 17.189621 0.000000 0.000000 0.000000 2.716384 -0.590897 -1.706359 -3.697360 0.016737 -1.793297 -20.790167 -4.438389 -2.792235 -15.375478 33.679355 50.546726 -28.274313 45.169912 21.936182 0.000000 0.000000 0.000000 
